<svg width="47" height="47" viewBox="0 0 47 47" fill="none" xmlns="http://www.w3.org/2000/svg">
<path d="M23.5003 3.9165C12.7021 3.9165 3.91699 12.7016 3.91699 23.4998V31.6132C3.91699 33.6185 5.67362 35.2498 7.83366 35.2498H9.79199C10.3114 35.2498 10.8095 35.0435 11.1767 34.6763C11.544 34.309 11.7503 33.8109 11.7503 33.2915V23.2198C11.7503 22.7004 11.544 22.2023 11.1767 21.835C10.8095 21.4678 10.3114 21.2615 9.79199 21.2615H8.01383C9.10266 13.6827 15.6239 7.83317 23.5003 7.83317C31.3767 7.83317 37.898 13.6827 38.9868 21.2615H37.2087C36.6893 21.2615 36.1912 21.4678 35.8239 21.835C35.4566 22.2023 35.2503 22.7004 35.2503 23.2198V35.2498C35.2503 37.4099 33.4937 39.1665 31.3337 39.1665H27.417V37.2082H19.5837V43.0832H31.3337C35.6537 43.0832 39.167 39.5699 39.167 35.2498C41.327 35.2498 43.0837 33.6185 43.0837 31.6132V23.4998C43.0837 12.7016 34.2986 3.9165 23.5003 3.9165Z" fill="black"/>
</svg>
