<svg width="45" height="42" viewBox="0 0 45 42" fill="none" xmlns="http://www.w3.org/2000/svg">
<rect x="0.298828" y="0.299408" width="44.3928" height="41.6288" rx="4.13889" fill="#F5F5F5"/>
<path d="M31.6418 13.3491C31.1133 12.8204 30.4858 12.401 29.7952 12.1148C29.1045 11.8286 28.3643 11.6813 27.6167 11.6813C26.8691 11.6813 26.1289 11.8286 25.4383 12.1148C24.7476 12.401 24.1201 12.8204 23.5917 13.3491L22.4948 14.4459L21.398 13.3491C20.3305 12.2816 18.8827 11.6819 17.373 11.6819C15.8633 11.6819 14.4154 12.2816 13.3479 13.3491C12.2804 14.4166 11.6807 15.8645 11.6807 17.3742C11.6807 18.8839 12.2804 20.3318 13.3479 21.3993L14.4447 22.4961L22.4948 30.5462L30.545 22.4961L31.6418 21.3993C32.1705 20.8708 32.59 20.2433 32.8761 19.5527C33.1623 18.862 33.3096 18.1218 33.3096 17.3742C33.3096 16.6266 33.1623 15.8864 32.8761 15.1957C32.59 14.5051 32.1705 13.8776 31.6418 13.3491V13.3491Z" stroke="#3670DC" stroke-width="1.03472" stroke-linecap="round" stroke-linejoin="round"/>
</svg>
