<svg width="29" height="37" viewBox="0 0 29 37" fill="none" xmlns="http://www.w3.org/2000/svg">
<path d="M26.7497 0.216125C27.2497 0.216191 27.7324 0.399786 28.1061 0.732086C28.4798 1.06439 28.7185 1.52228 28.7771 2.01892L28.7913 2.25779V34.9245C28.7908 35.4448 28.5915 35.9454 28.2343 36.3238C27.877 36.7021 27.3888 36.9299 26.8693 36.9604C26.3498 36.9908 25.8383 36.8218 25.4393 36.4878C25.0402 36.1538 24.7838 35.6801 24.7223 35.1633L24.708 34.9245V24.7161H22.6663C22.1663 24.7161 21.6836 24.5325 21.3099 24.2002C20.9362 23.8679 20.6975 23.41 20.639 22.9133L20.6247 22.6745V10.4245C20.6247 5.91238 23.6872 0.216125 26.7497 0.216125ZM14.4997 0.216125C14.9997 0.216191 15.4824 0.399786 15.8561 0.732086C16.2298 1.06439 16.4685 1.52228 16.5271 2.01892L16.5413 2.25779V12.4661C16.5411 14.2768 15.9394 16.0361 14.8308 17.4678C13.7221 18.8994 12.1694 19.9222 10.4163 20.3755V34.9245C10.4158 35.4448 10.2165 35.9454 9.85928 36.3238C9.50205 36.7021 9.01381 36.9299 8.49433 36.9604C7.97484 36.9908 7.46332 36.8218 7.06427 36.4878C6.66522 36.1538 6.40876 35.6801 6.3473 35.1633L6.33301 34.9245V20.3755C4.64956 19.9403 3.14884 18.9794 2.04911 17.6326C0.94938 16.2857 0.307989 14.6232 0.218216 12.8867L0.208008 12.4661V2.25779C0.208585 1.73741 0.407844 1.23689 0.765073 0.858499C1.1223 0.480104 1.61054 0.252396 2.13002 0.221899C2.64951 0.191402 3.16103 0.360419 3.56008 0.694416C3.95913 1.02841 4.21559 1.50218 4.27705 2.01892L4.29134 2.25779V12.4661C4.29136 13.1829 4.48004 13.887 4.83843 14.5077C5.19682 15.1285 5.71228 15.6439 6.33301 16.0023V2.25779C6.33359 1.73741 6.53284 1.23689 6.89007 0.858499C7.2473 0.480104 7.73554 0.252396 8.25502 0.221899C8.77451 0.191402 9.28603 0.360419 9.68508 0.694416C10.0841 1.02841 10.3406 1.50218 10.4021 2.01892L10.4163 2.25779L10.4184 16.0023C10.9881 15.673 11.4698 15.2108 11.8225 14.6552C12.1751 14.0995 12.3883 13.4669 12.4437 12.8112L12.458 12.4661V2.25779C12.458 1.71631 12.6731 1.197 13.056 0.814116C13.4389 0.431229 13.9582 0.216125 14.4997 0.216125Z" fill="#3670DC"/>
</svg>
